<?xml version="1.0" ?><svg xmlns="http://www.w3.org/2000/svg" xmlns:xlink="http://www.w3.org/1999/xlink" version="1.1" viewBox="0 0 512 512" style="enable-background:new 0 0 512 512;" xml:space="preserve"><g id="_x30_2_x2C__Electric_Station_x2C__Ecology_and_Environment_x2C__Transportation_x2C__Car_x2C__Vehicle_x2C__Plug_x2C__Ecology_x2C__Electric_Car_x2C__Charging"><g><path d="M91.059,401c18.427,0,143.484,0,160,0c16.542,0,30-13.458,30-30v-80c0-16.542-13.458-30-30-30h-160    c-16.542,0-30,13.458-30,30v80C61.059,387.542,74.517,401,91.059,401z M151.059,381c0-16.793,19.54-26.152,32.724-15.418    c4.441,3.671,7.276,9.22,7.276,15.418H151.059z M81.059,291c0-5.514,4.486-10,10-10h160c5.514,0,10,4.486,10,10v80    c0,5.514-4.486,10-10,10h-40c0-8.506-2.677-16.395-7.222-22.884l34.292-34.284c3.906-3.905,3.906-10.236,0.001-14.142    c-3.905-3.905-10.236-3.907-14.142-0.002l-35.384,35.375c-26.344-12.915-57.546,6.279-57.546,35.937h-40c-5.514,0-10-4.486-10-10    V291z"/><path d="M501,111h-20V71c0-5.523-4.477-10-10-10c-5.523,0-10,4.477-10,10v40h-40V71c0-5.523-4.477-10-10-10    c-5.523,0-10,4.477-10,10v40h-20c-5.523,0-10,4.477-10,10v40c0,27.867,16.372,51.977,40,63.232V291c0,11.028-8.972,20-20,20    h-31.72c-4.128-11.639-15.243-20-28.28-20h-9.941V41c0-22.056-17.944-40-40-40h-220c-22.056,0-40,17.944-40,40v381.7    C9.389,426.812,1,437.942,1,451v30c0,16.542,13.458,30,30,30h280c16.542,0,30-13.458,30-30v-30    c0-13.015-8.333-24.116-19.941-28.26V391H331c13.036,0,24.152-8.361,28.28-20H401c38.598,0,70-31.402,70-70v-76.768    c23.628-11.255,40-35.365,40-63.232v-40C511,115.477,506.523,111,501,111z M61.059,21h220c11.028,0,20,8.972,20,20    c0,4.688-0.002,375.312,0,380h-260V41C41.059,29.972,50.031,21,61.059,21z M321,481c0,5.514-4.486,10-10,10H31    c-5.514,0-10-4.486-10-10v-30c0-5.514,4.486-10,10-10h280c5.514,0,10,4.486,10,10V481z M331,371h-9.941v-60H331    c5.514,0,10,4.486,10,10v40C341,366.514,336.514,371,331,371z M451,301c0,27.57-22.43,50-50,50h-40v-20h30    c22.056,0,40-17.944,40-40v-60.726c6.726,0.966,13.264,0.968,20,0V301z"/><path d="M106.059,161h37.192l-16.894,67.575c-1.131,4.524,1.016,9.23,5.174,11.342c4.152,2.107,9.219,1.075,12.21-2.515l100-120    c5.423-6.508,0.772-16.402-7.682-16.402h-49.23l18.514-46.286C207.97,48.147,203.122,41,196.059,41h-50    c-4.089,0-7.766,2.489-9.285,6.286l-40,100C94.147,153.853,98.995,161,106.059,161z"/></g></g><g id="Layer_1"/></svg>